P3
2	2
255
110
139
90
85
60
60
100
200
120
120
80
60
